<svg width="24" height="24" viewBox="0 0 24 24" fill="currentColor" xmlns="http://www.w3.org/2000/svg">
  <path d="M16.405 5.501c-.115 0-.193.014-.274.033v.013h.014c.054.104.146.18.214.273.054.107.1.214.154.32l.014-.015c.094-.066.14-.172.14-.333-.04-.047-.046-.094-.08-.14-.04-.067-.126-.1-.18-.153zM18.872 8.5c-.274.013-.48.032-.687.072-.154.033-.394.126-.394.406 0 .072.033.12.094.154.206.133.568.094.807.094.274-.04.507-.094.747-.154v-.027c-.133-.206-.206-.507-.393-.747-.1-.154-.26-.254-.174-.798zm3.615 2.383c-.107-.274-.554-.207-.747-.207-.207 0-.414.047-.614.094-.133.033-.34.06-.34.274a.5.5 0 00.094.154c.206.174.507.154.747.207.393.094.747.207 1.107.32-.146-.412-.207-.547-.247-.842zM9.5 10.5c-.588.047-1.153.094-1.747.18-.154.027-.414.06-.414.274 0 .154.154.207.274.274.193.1.4.154.614.207.107.027.207.06.32.094v-.027c-.133-.154-.133-.394-.26-.574-.1-.133-.274-.154-.393-.274-.154-.133-.26-.394-.394-.154zm7.958-3.533c-.274-.014-.44.333-.607.607-.166.186-.333.4-.414.644-.04.133-.04.293-.094.426-.133.367-.333.753-.44 1.113-.107.4-.154.827-.274 1.22-.133.4-.333.827-.44 1.26-.04.154-.1.854-.274.967-.133.154-.307-.181-.394-.333-.166-.27-.166-.694-.26-1.034-.133-.506-.133-1.044-.26-1.563-.127-.693-.294-1.338-.44-1.997-.1-.4-.133-.827-.314-1.18-.094-.186-.333-.353-.333-.614 0-.133.1-.4-.014-.52-.094-.133-.274 0-.394.08-.273.154-.653.486-.906.66-.133.094-.513.154-.513.394 0 .133.094.267.154.4.094.2.154.427.274.627.133.267.274.553.394.827.133.4.133.827.274 1.18.074.187.154.36.274.507.094.133.274.274.314.44v.014c-.094.013-.1-.094-.154-.154-.274-.333-.314-.867-.507-1.327-.094-.226-.154-.466-.274-.693-.133-.333-.333-.653-.44-.993-.1-.4-.133-.873-.314-1.26-.1-.213-.274-.333-.333-.6 0-.094.013-.154 0-.233-.053-.186-.186-.273-.233-.44-.1-.333-.094-.747-.18-1.113-.154-.507-.394-.98-.394-1.526 0-.16.033-.386-.053-.52-.094-.16-.274-.267-.394-.4-.133-.154-.133-.4-.274-.573-.133-.154-.333-.227-.44-.4-.133-.2-.133-.454-.18-.7-.014-.333-.194-.666-.194-1.027 0-.4.167-.8.154-1.18-.014-.333-.194-.653-.194-.98 0-.333.167-.686.18-1.033.014-.367-.154-.7-.154-1.093 0-.333.154-.666.154-1.027 0-.4-.154-.8-.154-1.207 0-.333.154-.666.154-1.027 0-.333-.167-.666-.167-1.027 0-.333.167-.686.18-1.033.014-.367-.154-.7-.154-1.093 0-.4.167-.827.18-1.234.014-.4-.154-.827-.154-1.233 0-.467.167-.953.18-1.42.014-.467-.154-.953-.154-1.42 0-.507.167-1.02.18-1.533.014-.5-.154-1.02-.154-1.533 0-.54.167-1.094.18-1.647.014-.54-.154-1.094-.154-1.647 0-.573.167-1.167.18-1.76.014-.573-.154-1.167-.154-1.76 0-.606.167-1.233.18-1.86.014-.606-.154-1.233-.154-1.86 0-.64.167-1.3.18-1.973.014-.64-.154-1.3-.154-1.973 0-.673.167-1.367.18-2.087.014-.673-.154-1.367-.154-2.087 0-.706.167-1.433.18-2.2.014-.706-.154-1.433-.154-2.2 0-.74.167-1.5.18-2.313.014-.74-.154-1.5-.154-2.313 0-.773.167-1.567.18-2.427.014-.773-.154-1.567-.154-2.427 0-.8.167-1.633.18-2.533.014-.8-.154-1.633-.154-2.533 0-.833.167-1.7.18-2.647.014-.833-.154-1.7-.154-2.647 0-.866.167-1.766.18-2.766.014-.866-.154-1.766-.154-2.766 0-.9.167-1.833.18-2.9.014-.9-.154-1.833-.154-2.9 0-.933.167-1.9.18-3.033.014-.933-.154-1.9-.154-3.033 0-.966.167-1.966.18-3.166.014-.966-.154-1.966-.154-3.166 0-1 .167-2.033.18-3.3.014-1-.154-2.033-.154-3.3z"/>
</svg>