<svg width="24" height="24" viewBox="0 0 300 300" xmlns="http://www.w3.org/2000/svg">
  <path d="M300 150c0 82.844-67.156 150-150 150S0 232.844 0 150 67.156 0 150 0s150 67.156 150 150" fill="currentColor"/>
  <path d="M152.781.023a150.2 150.2 0 0 0-62.613 12.485c-76.027 33.14-110.797 121.64-77.66 197.668C40.55 274.07 108.902 310.23 177.5 297.465c2.926-9.324 5.32-19.543 5.32-30.692 0-1.582-.043-3.168-.129-4.793 0 0 5.368-9.152 9.59-21.074 5.235-14.742 2.465-30.976-6.597-43.824-.532-.703-1.059-1.496-1.63-2.285-53.37 0-79.769-48.399-86.456-77.832-2.77-12.102-5.02-13.3-12.575-13.3-13.976 0-24.066-5.798-24.066-5.798-12.832 5.88-18.578 3.485-16.855-2.656-5.59-.613-5.473-6.957-2.07-12.785 4.261-7.309 12.976-12.274 23.406-12.274h5.585c11.528 0 13.903-6.03 25.782-4.754 1.851.176 3.566.485 5.148.88 3.3-3.782 7.043-5.368 11.574-5.06.703.09 1.141.704 1.012 1.364l-1.102 5.105c-.394 1.891.133 3.872 1.497 5.149 9.59 8.973 15.09 24.285 21.25 38.102 9.988 20.37 34.097 48.66 72.773 12.363 27.191-25.524 43.621-46.805 70.625-48.895-26.41-45.203-74.457-73.386-126.8-74.383" fill="currentColor" opacity="0.7"/>
</svg>